├â┼╕├â┼╕├â┼╕├â┼╕├â┼╕├â┼╕├â┼╕├â┼╕├â┼╕├â┼╕├â┼╕├â┼╕├â┼╕├â┼╕├â┼╕├â┼╕├â┼╕├â┼╕├â┼╕├â┼╕├â┼╕├â┼╕├â┼╕├â┼╕├â┼╕├â┼╕├â┼╕├â┼╕├â┼╕├â┼╕├â┼╕├â┼╕├â┼╕├â┼╕├â┼╕├â┼╕├â┼╕├â┼╕├â┼╕├â┼╕├â┼╕├â┼╕├â┼╕├â┼╕├â┼╕├â┼╕├â┼╕├â┼╕├â┼╕├â┼╕├â┼╕├â┼╕├â┼╕├â┼╕├â┼╕├â┼╕├â┼╕├â┼╕├â┼╕├â┼╕├â┼╕├â┼╕├â┼╕├â┼╕├â┼╕├â┼╕├â┼╕├â┼╕├â┼╕├â┼╕

              ├âΓÇ║├é┬░├é┬░├é┬░├é┬░├é┬░├é┬░├é┬░├é┬░├é┬░├é┬░├é┬░├é┬░├é┬░├é┬░├é┬░├é┬░├é┬░├é┬░├é┬░├é┬░├é┬░├é┬░├é┬░├é┬░├é┬░├é┬░├é┬░├é┬░├é┬░├é┬░├é┬░├é┬░├é┬░├é┬░├é┬░├é┬░├é┬░├é┬░├é┬░├é┬░├é┬░├é┬░├é┬░├é┬░├é┬░├é┬░├âΓÇ║
             ├âΓÇ║├âΓÇ║ Ice Age Dawn Of The Dinosaurs[2009]DvDrip-LW ├âΓÇ║├âΓÇ║
              ├âΓÇ║├é┬░├é┬░├é┬░├é┬░├é┬░├é┬░├é┬░├é┬░├é┬░├é┬░├é┬░├é┬░├é┬░├é┬░├é┬░├é┬░├é┬░├é┬░├é┬░├é┬░├é┬░├é┬░├é┬░├é┬░├é┬░├é┬░├é┬░├é┬░├é┬░├é┬░├é┬░├é┬░├é┬░├é┬░├é┬░├é┬░├é┬░├é┬░├é┬░├é┬░├é┬░├é┬░├é┬░├é┬░├é┬░├é┬░├âΓÇ║

File Name    : Ice Age Dawn Of The Dinosaurs[2009]DvDrip-LW
Type         : Movie
Format       : AVI
File Size    : 699 MB
Duration     : 01:30:10
Language     : English
Source       : DvD
Subtitles    : None
Genre        : Animation | Action | Adventure
IMDB Link    : http://www.imdb.com/title/tt1080016/
IMDB Rating  : 7.3/10
IMDB Votes   : 13,043 Votes
     ├â┼ô├â┼ô├â┼ô├â┼ô├â┼ô├â┼ô├â┼ô├â┼ô├â┼ô├â┼ô├â┼ô├â┼ô├â┼ô├â┼ô├â┼ô├â┼ô├â┼ô├â┼ô├â┼ô├â┼ô├â┼ô├â┼ô├â┼ô├â┼ô├â┼ô├â┼ô├â┼ô├â┼ô├â┼ô├â┼ô├â┼ô├â┼ô├â┼ô├â┼ô├â┼ô├â┼ô├â┼ô├â┼ô├â┼ô├â┼ô├â┼ô├â┼ô├â┼ô├â┼ô├â┼ô├â┼ô├â┼ô├â┼ô├â┼ô├â┼ô├â┼ô├â┼ô├â┼ô├â┼ô├â┼ô├â┼ô├â┼ô├â┼ô├â┼ô├â┼ô├â┼ô├â┼ô├â┼ô├â┼ô├â┼ô├â┼ô├â┼ô├â┼ô├â┼ô├â┼ô
 
                        ├âΓÇ║├é┬░├é┬░├é┬░├é┬░├é┬░├é┬░├é┬░├é┬░├é┬░├é┬░├é┬░├é┬░├é┬░├é┬░├é┬░├é┬░├é┬░├é┬░├é┬░├é┬░├é┬░├é┬░├é┬░├é┬░├âΓÇ║
                       ├âΓÇ║├âΓÇ║       Video Info       ├âΓÇ║├âΓÇ║
                        ├âΓÇ║├é┬░├é┬░├é┬░├é┬░├é┬░├é┬░├é┬░├é┬░├é┬░├é┬░├é┬░├é┬░├é┬░├é┬░├é┬░├é┬░├é┬░├é┬░├é┬░├é┬░├é┬░├é┬░├é┬░├é┬░├âΓÇ║

Format                           : MPEG-4 Visual
Format profile                   : Streaming Video@L1
Format settings, BVOP            : Yes
Format settings, QPel            : No
Format settings, GMC             : No warppoints
Format settings, Matrix          : Default (H.263)
Codec ID                         : XVID
Codec ID/Hint                    : XviD
Duration                         : 1h 30mn
Bit rate                         : 947 Kbps
Width                            : 640 pixels
Height                           : 352 pixels
Display aspect ratio             : 2.35
Frame rate                       : 25.000 fps
Resolution                       : 24 bits
Colorimetry                      : 4:2:0
Scan type                        : Progressive
Bits/(Pixel*Frame)               : 0.168
Stream size                      : 611 MiB (87%)
Writing library                  : XviD 1.1.2
     ├â┼ô├â┼ô├â┼ô├â┼ô├â┼ô├â┼ô├â┼ô├â┼ô├â┼ô├â┼ô├â┼ô├â┼ô├â┼ô├â┼ô├â┼ô├â┼ô├â┼ô├â┼ô├â┼ô├â┼ô├â┼ô├â┼ô├â┼ô├â┼ô├â┼ô├â┼ô├â┼ô├â┼ô├â┼ô├â┼ô├â┼ô├â┼ô├â┼ô├â┼ô├â┼ô├â┼ô├â┼ô├â┼ô├â┼ô├â┼ô├â┼ô├â┼ô├â┼ô├â┼ô├â┼ô├â┼ô├â┼ô├â┼ô├â┼ô├â┼ô├â┼ô├â┼ô├â┼ô├â┼ô├â┼ô├â┼ô├â┼ô├â┼ô├â┼ô├â┼ô├â┼ô├â┼ô├â┼ô├â┼ô├â┼ô├â┼ô├â┼ô├â┼ô├â┼ô├â┼ô

                         ├âΓÇ║├é┬░├é┬░├é┬░├é┬░├é┬░├é┬░├é┬░├é┬░├é┬░├é┬░├é┬░├é┬░├é┬░├é┬░├é┬░├é┬░├é┬░├é┬░├é┬░├é┬░├é┬░├é┬░├é┬░├é┬░├âΓÇ║
                        ├âΓÇ║├âΓÇ║      Sound Info        ├âΓÇ║├âΓÇ║
                         ├âΓÇ║├é┬░├é┬░├é┬░├é┬░├é┬░├é┬░├é┬░├é┬░├é┬░├é┬░├é┬░├é┬░├é┬░├é┬░├é┬░├é┬░├é┬░├é┬░├é┬░├é┬░├é┬░├é┬░├é┬░├é┬░├âΓÇ║

Format                           : MPEG Audio
Format version                   : Version 1
Format profile                   : Layer 3
Codec ID                         : 55
Codec ID/Hint                    : MP3
Duration                         : 1h 30mn
Bit rate mode                    : Variable
Bit rate                         : 128 Kbps
Nominal bit rate                 : 132 Kbps
Channel(s)                       : 2 channels
Sampling rate                    : 48.0 KHz
Resolution                       : 16 bits
Stream size                      : 82.8 MiB (12%)
Alignment                        : Aligned on interleaves
Interleave, duration             : 24 ms (0.60 video frame)
Interleave, preload duration     : 92 ms
Writing library                  : LAME3.90.
Encoding settings                : ABR
    ├â┼ô├â┼ô├â┼ô├â┼ô├â┼ô├â┼ô├â┼ô├â┼ô├â┼ô├â┼ô├â┼ô├â┼ô├â┼ô├â┼ô├â┼ô├â┼ô├â┼ô├â┼ô├â┼ô├â┼ô├â┼ô├â┼ô├â┼ô├â┼ô├â┼ô├â┼ô├â┼ô├â┼ô├â┼ô├â┼ô├â┼ô├â┼ô├â┼ô├â┼ô├â┼ô├â┼ô├â┼ô├â┼ô├â┼ô├â┼ô├â┼ô├â┼ô├â┼ô├â┼ô├â┼ô├â┼ô├â┼ô├â┼ô├â┼ô├â┼ô├â┼ô├â┼ô├â┼ô├â┼ô├â┼ô├â┼ô├â┼ô├â┼ô├â┼ô├â┼ô├â┼ô├â┼ô├â┼ô├â┼ô├â┼ô├â┼ô├â┼ô├â┼ô├â┼ô├â┼ô

                          ├âΓÇ║├é┬░├é┬░├é┬░├é┬░├é┬░├é┬░├é┬░├é┬░├é┬░├é┬░├é┬░├é┬░├é┬░├é┬░├é┬░├é┬░├é┬░├é┬░├é┬░├é┬░├é┬░├é┬░├é┬░├é┬░├âΓÇ║
                         ├âΓÇ║├âΓÇ║          Plot          ├âΓÇ║├âΓÇ║
                          ├âΓÇ║├é┬░├é┬░├é┬░├é┬░├é┬░├é┬░├é┬░├é┬░├é┬░├é┬░├é┬░├é┬░├é┬░├é┬░├é┬░├é┬░├é┬░├é┬░├é┬░├é┬░├é┬░├é┬░├é┬░├é┬░├âΓÇ║

Times are changing for moody mammoth Manny (voiced 
by Ray Romano), motormouthed sloth Sid (John 
Leguizamo) and crafty saber-toothed tiger Diego 
(Denis Leary) in this third installment of the 
beloved computer-animated children's franchise. 
Life heats up for our heroes when they meet some new 
and none-too-friendly neighbors: the mighty dinosaurs. 
High jinks and hilarity ensue in this fun family 
adventure that's packed with celebrity voices.

Starring: John Leguizamo, Denis Leary

Director: Carlos Saldanha
    ├â┼ô├â┼ô├â┼ô├â┼ô├â┼ô├â┼ô├â┼ô├â┼ô├â┼ô├â┼ô├â┼ô├â┼ô├â┼ô├â┼ô├â┼ô├â┼ô├â┼ô├â┼ô├â┼ô├â┼ô├â┼ô├â┼ô├â┼ô├â┼ô├â┼ô├â┼ô├â┼ô├â┼ô├â┼ô├â┼ô├â┼ô├â┼ô├â┼ô├â┼ô├â┼ô├â┼ô├â┼ô├â┼ô├â┼ô├â┼ô├â┼ô├â┼ô├â┼ô├â┼ô├â┼ô├â┼ô├â┼ô├â┼ô├â┼ô├â┼ô├â┼ô├â┼ô├â┼ô├â┼ô├â┼ô├â┼ô├â┼ô├â┼ô├â┼ô├â┼ô├â┼ô├â┼ô├â┼ô├â┼ô├â┼ô├â┼ô├â┼ô├â┼ô├â┼ô├â┼ô

ScreenShots 
http://imgshack.info/images/qj4b7w5yqluyxcrmnglx.png 
http://imgshack.info/images/o0qcbmjym8248veosrp.png 
http://imgshack.info/images/4v6prbqxmc64u1kd8sig.png